<mxfile host="Electron" agent="Mozilla/5.0 (Windows NT 10.0; Win64; x64) AppleWebKit/537.36 (KHTML, like Gecko) draw.io/26.0.16 Chrome/132.0.6834.196 Electron/34.2.0 Safari/537.36" version="26.0.16">
  <diagram name="Page-1" id="qt4e0Ns0KmB2NCPrAL0E">
    <mxGraphModel dx="1730" dy="532" grid="1" gridSize="10" guides="1" tooltips="1" connect="1" arrows="1" fold="1" page="1" pageScale="1" pageWidth="850" pageHeight="1100" math="0" shadow="0">
      <root>
        <mxCell id="0" />
        <mxCell id="1" parent="0" />
        <mxCell id="ivhIEPTqHGX7pbVCswgi-3" value="Dados de entrada" style="sketch=0;outlineConnect=0;fontColor=#232F3E;gradientColor=none;fillColor=#232F3D;strokeColor=none;dashed=0;verticalLabelPosition=top;verticalAlign=bottom;align=center;html=1;fontSize=16;fontStyle=0;aspect=fixed;pointerEvents=1;shape=mxgraph.aws4.document;labelPosition=center;" parent="1" vertex="1">
          <mxGeometry x="20" y="269" width="58.46" height="80" as="geometry" />
        </mxCell>
        <mxCell id="ivhIEPTqHGX7pbVCswgi-13" value="" style="group;fillColor=#dae8fc;strokeColor=#6c8ebf;container=0;" parent="1" vertex="1" connectable="0">
          <mxGeometry x="700" y="380" width="320" height="200" as="geometry" />
        </mxCell>
        <mxCell id="3rA-hX2oMdFs4SSk3TAP-1" value="&lt;span style=&quot;&quot;&gt;&lt;font&gt;Conexão&lt;/font&gt;&lt;/span&gt;&lt;div&gt;&lt;span style=&quot;&quot;&gt;&lt;font&gt;por&lt;/font&gt;&lt;/span&gt;&lt;/div&gt;&lt;div&gt;&lt;span style=&quot;background-color: transparent; color: light-dark(rgb(0, 0, 0), rgb(255, 255, 255));&quot;&gt;JDBC&lt;/span&gt;&lt;/div&gt;" style="text;html=1;align=center;verticalAlign=middle;whiteSpace=wrap;rounded=0;fontSize=16;fontStyle=0" parent="1" vertex="1">
          <mxGeometry x="544" y="490" width="156" height="70" as="geometry" />
        </mxCell>
        <mxCell id="3oU_jW1MSCWfIVDu8UCs-1" value="&lt;span&gt;Dados de saída&lt;/span&gt;" style="sketch=0;outlineConnect=0;fontColor=#232F3E;gradientColor=none;fillColor=#232F3D;strokeColor=none;dashed=0;verticalLabelPosition=top;verticalAlign=bottom;align=center;html=1;fontSize=16;fontStyle=0;aspect=fixed;pointerEvents=1;shape=mxgraph.aws4.document;labelPosition=center;" parent="1" vertex="1">
          <mxGeometry x="610" y="269" width="58.46" height="80" as="geometry" />
        </mxCell>
        <mxCell id="ivhIEPTqHGX7pbVCswgi-7" value="" style="rounded=0;whiteSpace=wrap;html=1;movable=1;resizable=1;rotatable=1;deletable=1;editable=1;locked=0;connectable=1;fillColor=#dae8fc;strokeColor=#6c8ebf;" parent="1" vertex="1">
          <mxGeometry x="170" y="140" width="390" height="430" as="geometry" />
        </mxCell>
        <mxCell id="ivhIEPTqHGX7pbVCswgi-8" value="&lt;span style=&quot;font-weight: normal;&quot;&gt;&lt;font style=&quot;font-size: 16px;&quot;&gt;Máquina Local&lt;/font&gt;&lt;/span&gt;" style="text;html=1;align=center;verticalAlign=middle;whiteSpace=wrap;rounded=0;fontSize=14;fontStyle=1;movable=1;resizable=1;rotatable=1;deletable=1;editable=1;locked=0;connectable=1;" parent="1" vertex="1">
          <mxGeometry x="170.03030303030303" y="140" width="129.8181818181818" height="30" as="geometry" />
        </mxCell>
        <mxCell id="ivhIEPTqHGX7pbVCswgi-12" value="" style="group;movable=1;resizable=1;rotatable=1;deletable=1;editable=1;locked=0;connectable=1;fillColor=#d5e8d4;strokeColor=#82b366;container=0;" parent="1" vertex="1" connectable="0">
          <mxGeometry x="190" y="180" width="350" height="370" as="geometry" />
        </mxCell>
        <mxCell id="ivhIEPTqHGX7pbVCswgi-1" value="" style="rounded=0;whiteSpace=wrap;html=1;movable=1;resizable=1;rotatable=1;deletable=1;editable=1;locked=0;connectable=1;fillColor=#f5f5f5;strokeColor=#666666;fontColor=#333333;" parent="1" vertex="1">
          <mxGeometry x="190" y="180" width="350" height="370" as="geometry" />
        </mxCell>
        <mxCell id="ivhIEPTqHGX7pbVCswgi-4" value="&lt;span style=&quot;font-weight: normal;&quot;&gt;&lt;font style=&quot;font-size: 16px;&quot;&gt;JVM&lt;/font&gt;&lt;/span&gt;" style="text;html=1;align=center;verticalAlign=middle;whiteSpace=wrap;rounded=0;fontSize=14;fontStyle=1;movable=1;resizable=1;rotatable=1;deletable=1;editable=1;locked=0;connectable=1;" parent="1" vertex="1">
          <mxGeometry x="190" y="180" width="75.00000000000001" height="46.25" as="geometry" />
        </mxCell>
        <mxCell id="ivhIEPTqHGX7pbVCswgi-18" value="" style="rounded=0;whiteSpace=wrap;html=1;movable=1;resizable=1;rotatable=1;deletable=1;editable=1;locked=0;connectable=1;fillColor=#ffe6cc;strokeColor=#d79b00;" parent="1" vertex="1">
          <mxGeometry x="215" y="235.07" width="300.00000000000006" height="294.93" as="geometry" />
        </mxCell>
        <mxCell id="ivhIEPTqHGX7pbVCswgi-19" value="&lt;span style=&quot;&quot;&gt;&lt;font style=&quot;font-size: 16px;&quot;&gt;Aplicação&lt;/font&gt;&lt;/span&gt;" style="text;html=1;align=center;verticalAlign=middle;whiteSpace=wrap;rounded=0;fontSize=14;fontStyle=0;movable=1;resizable=1;rotatable=1;deletable=1;editable=1;locked=0;connectable=1;" parent="1" vertex="1">
          <mxGeometry x="217.5" y="236.66666666666669" width="112.50000000000003" height="44.04541666666667" as="geometry" />
        </mxCell>
        <mxCell id="wggbg7Cfq-xFk_HYx3AC-1" value="" style="rounded=0;whiteSpace=wrap;html=1;movable=1;resizable=1;rotatable=1;deletable=1;editable=1;locked=0;connectable=1;fillColor=#e1d5e7;strokeColor=#9673a6;" parent="1" vertex="1">
          <mxGeometry x="251" y="300" width="230" height="210" as="geometry" />
        </mxCell>
        <mxCell id="wggbg7Cfq-xFk_HYx3AC-2" value="&lt;font style=&quot;font-size: 16px; font-weight: normal;&quot;&gt;Interface Gráfica&lt;/font&gt;" style="text;html=1;align=center;verticalAlign=middle;whiteSpace=wrap;rounded=0;fontSize=14;fontStyle=1;movable=1;resizable=1;rotatable=1;deletable=1;editable=1;locked=0;connectable=1;" parent="1" vertex="1">
          <mxGeometry x="252.5" y="300.71" width="147.5" height="54.29" as="geometry" />
        </mxCell>
        <mxCell id="ivhIEPTqHGX7pbVCswgi-17" value="" style="endArrow=none;html=1;rounded=0;startArrow=classic;startFill=1;edgeStyle=orthogonalEdgeStyle;exitX=0;exitY=0.25;exitDx=0;exitDy=0;" parent="1" source="ivhIEPTqHGX7pbVCswgi-18" target="ivhIEPTqHGX7pbVCswgi-3" edge="1">
          <mxGeometry width="50" height="50" relative="1" as="geometry">
            <mxPoint x="380" y="570" as="sourcePoint" />
            <mxPoint x="380" y="430" as="targetPoint" />
          </mxGeometry>
        </mxCell>
        <mxCell id="3oU_jW1MSCWfIVDu8UCs-2" value="" style="endArrow=none;html=1;rounded=0;startArrow=classic;startFill=1;edgeStyle=orthogonalEdgeStyle;entryX=1;entryY=0.25;entryDx=0;entryDy=0;" parent="1" source="3oU_jW1MSCWfIVDu8UCs-1" target="ivhIEPTqHGX7pbVCswgi-18" edge="1">
          <mxGeometry width="50" height="50" relative="1" as="geometry">
            <mxPoint x="80" y="440" as="sourcePoint" />
            <mxPoint x="180" y="515" as="targetPoint" />
            <Array as="points" />
          </mxGeometry>
        </mxCell>
        <mxCell id="ivhIEPTqHGX7pbVCswgi-9" value="" style="rounded=0;whiteSpace=wrap;html=1;fillColor=#dae8fc;strokeColor=#6c8ebf;" parent="1" vertex="1">
          <mxGeometry x="700" y="380" width="320" height="200" as="geometry" />
        </mxCell>
        <mxCell id="ivhIEPTqHGX7pbVCswgi-10" value="&lt;span style=&quot;font-weight: normal;&quot;&gt;&lt;font style=&quot;font-size: 16px;&quot;&gt;Servidor&lt;/font&gt;&lt;/span&gt;" style="text;html=1;align=center;verticalAlign=middle;whiteSpace=wrap;rounded=0;fontStyle=1;fontSize=14;" parent="1" vertex="1">
          <mxGeometry x="700" y="380" width="80" height="28.57" as="geometry" />
        </mxCell>
        <mxCell id="ivhIEPTqHGX7pbVCswgi-15" value="" style="rounded=0;whiteSpace=wrap;html=1;fillColor=#f5f5f5;fontColor=#333333;strokeColor=#666666;" parent="1" vertex="1">
          <mxGeometry x="730" y="420" width="260" height="140" as="geometry" />
        </mxCell>
        <mxCell id="ivhIEPTqHGX7pbVCswgi-16" value="&lt;span style=&quot;font-weight: normal;&quot;&gt;&lt;font style=&quot;font-size: 16px;&quot;&gt;Base de dados PostgreSQL&lt;/font&gt;&lt;/span&gt;" style="text;html=1;align=center;verticalAlign=middle;whiteSpace=wrap;rounded=0;fontStyle=1;fontSize=14;" parent="1" vertex="1">
          <mxGeometry x="730" y="420" width="230" height="28.57" as="geometry" />
        </mxCell>
        <mxCell id="ivhIEPTqHGX7pbVCswgi-14" value="" style="endArrow=block;html=1;rounded=0;startArrow=classic;startFill=1;endFill=1;edgeStyle=orthogonalEdgeStyle;entryX=1.004;entryY=0.865;entryDx=0;entryDy=0;exitX=0;exitY=0.5;exitDx=0;exitDy=0;entryPerimeter=0;" parent="1" source="ivhIEPTqHGX7pbVCswgi-15" target="ivhIEPTqHGX7pbVCswgi-18" edge="1">
          <mxGeometry width="50" height="50" relative="1" as="geometry">
            <mxPoint x="480" y="600" as="sourcePoint" />
            <mxPoint x="530" y="550" as="targetPoint" />
          </mxGeometry>
        </mxCell>
      </root>
    </mxGraphModel>
  </diagram>
</mxfile>
